<?xml version="1.0" encoding="UTF-8"?>
<svg id="Layer_3" data-name="Layer 3" xmlns="http://www.w3.org/2000/svg" viewBox="0 0 308.87 145.37">
  <defs>
    <style>
      .cls-1 {
        fill: #000;
      }

      .cls-1, .cls-2, .cls-3, .cls-4, .cls-5 {
        stroke-width: 0px;
      }

      .cls-2 {
        fill: #29d330;
      }

      .cls-3 {
        fill: #d85cff;
      }

      .cls-4 {
        fill: #74ff45;
      }

      .cls-5 {
        fill: #93278f;
      }
    </style>
  </defs>
  <g>
    <path class="cls-1" d="M10.88,7.09h2.3v1.34h-.48v25.49l-6.77,6.77h-1.92v-1.34h.48V8.43h-.48v-1.34h2.3v1.34h-.48v30.48l5.57-5.57V8.43h-.53v-1.34Z"/>
    <path class="cls-1" d="M20.29,8.43h-.48v24.86h.48v1.34h-2.3v-1.34h.48V8.43h-.48v-1.34h2.3v1.34Z"/>
    <path class="cls-1" d="M25.09,7.09h9.17v1.34h-.48v10.46l-6.86,6.91v7.49h.48v1.34h-2.3v-1.34h.48V8.43h-.48v-1.34ZM32.48,18.37v-9.94h-5.57v15.5l5.57-5.57Z"/>
    <path class="cls-1" d="M39.06,7.09h8.69v1.82h-1.3v-.48h-5.57v7.58h2.11v-.48h1.3v2.3h-1.3v-.48h-2.11v15.94h5.57v-.48h1.3v1.82h-8.69v-1.34h.48V8.43h-.48v-1.34Z"/>
    <path class="cls-1" d="M52.54,7.09h9.17v1.34h-.48v10.46l-2.93,2.93,2.93,2.93v8.54h.48v1.34h-2.3v-1.34h.53v-8.02l-2.54-2.5-3.02,3.02v7.49h.48v1.34h-2.3v-1.34h.48V8.43h-.48v-1.34ZM57.39,20.91l2.54-2.54v-9.94h-5.57v15.5l2.06-2.11.96-.91Z"/>
    <path class="cls-1" d="M70.74,7.81l-.82,11.52h-2.59l-.77-11.52h4.18Z"/>
    <path class="cls-1" d="M84.22,17.36h-1.3v-8.93h-5.57v7.49l6.86,6.86v10.51h.48v1.34h-9.17v-1.34h.48v-10.08h1.34v10.08h5.57v-9.94l-6.91-6.91v-8.02h-.48v-1.34h9.17v1.34h-.48v8.93Z"/>
    <path class="cls-1" d="M105.49,8.43h-.48v24.86h.48v1.34h-2.3v-1.34h.53V8.87l-2.16,2.11v22.32h.53v1.34h-2.3v-1.34h.48V10.98l-2.11-2.11v24.43h.48v1.34h-2.3v-1.34h.48V8.43h-.48v-1.34h1.92l2.69,2.69,2.69-2.69h1.87v1.34Z"/>
    <path class="cls-1" d="M110.29,7.09h8.69v1.82h-1.3v-.48h-5.57v7.58h2.11v-.48h1.3v2.3h-1.3v-.48h-2.11v15.94h5.57v-.48h1.3v1.82h-8.69v-1.34h.48V8.43h-.48v-1.34Z"/>
    <path class="cls-1" d="M131.16,32.82h1.3v1.82h-8.69v-1.34h.48V8.43h-.48v-1.34h2.3v1.34h-.48v24.86h5.57v-.48Z"/>
    <path class="cls-1" d="M145.95,8.43v24.86h.48v1.34h-2.3v-1.34h.53v-15.94h-5.57v15.94h.48v1.34h-2.3v-1.34h.48V8.43h-.48v-1.34h9.17v1.34h-.48ZM144.65,16.02v-7.58h-5.57v7.58h5.57Z"/>
    <path class="cls-1" d="M160.4,8.43h-.48v5.42l.1.1-.1.14v19.2h.48v1.34h-2.3v-1.34h.53V14.43l-5.57-5.57v24.43h.48v1.34h-2.3v-1.34h.48V8.43h-.48v-1.34h1.92l5.47,5.47v-4.13h-.53v-1.34h2.3v1.34Z"/>
    <path class="cls-1" d="M172.06,16.02h.53v-7.58h-5.57v24.86h5.57v-7.58h-.53v-1.34h2.3v1.34h-.48v8.93h-8.69v-1.34h.48V8.43h-.48v-1.34h8.69v8.93h.48v1.34h-2.3v-1.34Z"/>
    <path class="cls-1" d="M187.85,8.43v24.86h.48v1.34h-2.3v-1.34h.53v-15.94h-5.57v15.94h.48v1.34h-2.3v-1.34h.48V8.43h-.48v-1.34h2.3v1.34h-.48v7.58h5.57v-7.58h-.53v-1.34h2.3v1.34h-.48Z"/>
    <path class="cls-1" d="M202.3,8.43h-.48v24.86h.48v1.34h-9.17v-1.34h.48V8.43h-.48v-1.34h9.17v1.34ZM200.52,33.3V8.43h-5.57v24.86h5.57ZM198.36,25.71h-1.3v-9.7h1.3v9.7Z"/>
    <path class="cls-1" d="M214.49,32.82h1.3v1.82h-8.69v-1.34h.48V8.43h-.48v-1.34h2.3v1.34h-.48v24.86h5.57v-.48Z"/>
    <path class="cls-1" d="M229.27,33.3h.48v1.34h-9.17v-1.34h.48v-8.93h1.34v8.93h5.57v-8.02l-6.91-6.91v-9.94h-.48v-1.34h2.3v1.34h-.48v9.41l5.57,5.57v-14.98h-.53v-1.34h2.3v1.34h-.48v24.86Z"/>
  </g>
  <g>
    <path class="cls-2" d="M8.92,5.71h2.3v1.34h-.48v25.49l-6.77,6.77h-1.92v-1.34h.48V7.06h-.48v-1.34h2.3v1.34h-.48v30.48l5.57-5.57V7.06h-.53v-1.34Z"/>
    <path class="cls-2" d="M18.33,7.06h-.48v24.86h.48v1.34h-2.3v-1.34h.48V7.06h-.48v-1.34h2.3v1.34Z"/>
    <path class="cls-2" d="M23.13,5.71h9.17v1.34h-.48v10.46l-6.86,6.91v7.49h.48v1.34h-2.3v-1.34h.48V7.06h-.48v-1.34ZM30.52,17V7.06h-5.57v15.5l5.57-5.57Z"/>
    <path class="cls-2" d="M37.1,5.71h8.69v1.82h-1.3v-.48h-5.57v7.58h2.11v-.48h1.3v2.3h-1.3v-.48h-2.11v15.94h5.57v-.48h1.3v1.82h-8.69v-1.34h.48V7.06h-.48v-1.34Z"/>
    <path class="cls-2" d="M50.59,5.71h9.17v1.34h-.48v10.46l-2.93,2.93,2.93,2.93v8.54h.48v1.34h-2.3v-1.34h.53v-8.02l-2.54-2.5-3.02,3.02v7.49h.48v1.34h-2.3v-1.34h.48V7.06h-.48v-1.34ZM55.43,19.54l2.54-2.54V7.06h-5.57v15.5l2.06-2.11.96-.91Z"/>
    <path class="cls-2" d="M68.78,6.43l-.82,11.52h-2.59l-.77-11.52h4.18Z"/>
    <path class="cls-2" d="M82.27,15.99h-1.3V7.06h-5.57v7.49l6.86,6.86v10.51h.48v1.34h-9.17v-1.34h.48v-10.08h1.34v10.08h5.57v-9.94l-6.91-6.91V7.06h-.48v-1.34h9.17v1.34h-.48v8.93Z"/>
    <path class="cls-5" d="M103.53,7.06h-.48v24.86h.48v1.34h-2.3v-1.34h.53V7.49l-2.16,2.11v22.32h.53v1.34h-2.3v-1.34h.48V9.6l-2.11-2.11v24.43h.48v1.34h-2.3v-1.34h.48V7.06h-.48v-1.34h1.92l2.69,2.69,2.69-2.69h1.87v1.34Z"/>
    <path class="cls-5" d="M108.33,5.71h8.69v1.82h-1.3v-.48h-5.57v7.58h2.11v-.48h1.3v2.3h-1.3v-.48h-2.11v15.94h5.57v-.48h1.3v1.82h-8.69v-1.34h.48V7.06h-.48v-1.34Z"/>
    <path class="cls-5" d="M129.21,31.44h1.3v1.82h-8.69v-1.34h.48V7.06h-.48v-1.34h2.3v1.34h-.48v24.86h5.57v-.48Z"/>
    <path class="cls-5" d="M143.99,7.06v24.86h.48v1.34h-2.3v-1.34h.53v-15.94h-5.57v15.94h.48v1.34h-2.3v-1.34h.48V7.06h-.48v-1.34h9.17v1.34h-.48ZM142.69,14.64v-7.58h-5.57v7.58h5.57Z"/>
    <path class="cls-5" d="M158.44,7.06h-.48v5.42l.1.1-.1.14v19.2h.48v1.34h-2.3v-1.34h.53V13.06l-5.57-5.57v24.43h.48v1.34h-2.3v-1.34h.48V7.06h-.48v-1.34h1.92l5.47,5.47v-4.13h-.53v-1.34h2.3v1.34Z"/>
    <path class="cls-5" d="M170.1,14.64h.53v-7.58h-5.57v24.86h5.57v-7.58h-.53v-1.34h2.3v1.34h-.48v8.93h-8.69v-1.34h.48V7.06h-.48v-1.34h8.69v8.93h.48v1.34h-2.3v-1.34Z"/>
    <path class="cls-5" d="M185.89,7.06v24.86h.48v1.34h-2.3v-1.34h.53v-15.94h-5.57v15.94h.48v1.34h-2.3v-1.34h.48V7.06h-.48v-1.34h2.3v1.34h-.48v7.58h5.57v-7.58h-.53v-1.34h2.3v1.34h-.48Z"/>
    <path class="cls-5" d="M200.34,7.06h-.48v24.86h.48v1.34h-9.17v-1.34h.48V7.06h-.48v-1.34h9.17v1.34ZM198.56,31.92V7.06h-5.57v24.86h5.57ZM196.4,24.34h-1.3v-9.7h1.3v9.7Z"/>
    <path class="cls-5" d="M212.53,31.44h1.3v1.82h-8.69v-1.34h.48V7.06h-.48v-1.34h2.3v1.34h-.48v24.86h5.57v-.48Z"/>
    <path class="cls-5" d="M227.31,31.92h.48v1.34h-9.17v-1.34h.48v-8.93h1.34v8.93h5.57v-8.02l-6.91-6.91V7.06h-.48v-1.34h2.3v1.34h-.48v9.41l5.57,5.57V7.06h-.53v-1.34h2.3v1.34h-.48v24.86Z"/>
  </g>
  <g>
    <path class="cls-4" d="M6.86,4.66h2.3v1.34h-.48v25.49l-6.77,6.77H0v-1.34h.48V6h-.48v-1.34h2.3v1.34h-.48v30.48l5.57-5.57V6h-.53v-1.34Z"/>
    <path class="cls-4" d="M16.27,6h-.48v24.86h.48v1.34h-2.3v-1.34h.48V6h-.48v-1.34h2.3v1.34Z"/>
    <path class="cls-4" d="M21.07,4.66h9.17v1.34h-.48v10.46l-6.86,6.91v7.49h.48v1.34h-2.3v-1.34h.48V6h-.48v-1.34ZM28.46,15.94V6h-5.57v15.5l5.57-5.57Z"/>
    <path class="cls-4" d="M35.04,4.66h8.69v1.82h-1.3v-.48h-5.57v7.58h2.11v-.48h1.3v2.3h-1.3v-.48h-2.11v15.94h5.57v-.48h1.3v1.82h-8.69v-1.34h.48V6h-.48v-1.34Z"/>
    <path class="cls-4" d="M48.53,4.66h9.17v1.34h-.48v10.46l-2.93,2.93,2.93,2.93v8.54h.48v1.34h-2.3v-1.34h.53v-8.02l-2.54-2.5-3.02,3.02v7.49h.48v1.34h-2.3v-1.34h.48V6h-.48v-1.34ZM53.37,18.48l2.54-2.54V6h-5.57v15.5l2.06-2.11.96-.91Z"/>
    <path class="cls-4" d="M66.72,5.37l-.82,11.52h-2.59l-.77-11.52h4.18Z"/>
    <path class="cls-4" d="M80.2,14.93h-1.3V6h-5.57v7.49l6.86,6.86v10.51h.48v1.34h-9.17v-1.34h.48v-10.08h1.34v10.08h5.57v-9.94l-6.91-6.91V6h-.48v-1.34h9.17v1.34h-.48v8.93Z"/>
    <path class="cls-3" d="M101.47,6h-.48v24.86h.48v1.34h-2.3v-1.34h.53V6.43l-2.16,2.11v22.32h.53v1.34h-2.3v-1.34h.48V8.55l-2.11-2.11v24.43h.48v1.34h-2.3v-1.34h.48V6h-.48v-1.34h1.92l2.69,2.69,2.69-2.69h1.87v1.34Z"/>
    <path class="cls-3" d="M106.27,4.66h8.69v1.82h-1.3v-.48h-5.57v7.58h2.11v-.48h1.3v2.3h-1.3v-.48h-2.11v15.94h5.57v-.48h1.3v1.82h-8.69v-1.34h.48V6h-.48v-1.34Z"/>
    <path class="cls-3" d="M127.15,30.39h1.3v1.82h-8.69v-1.34h.48V6h-.48v-1.34h2.3v1.34h-.48v24.86h5.57v-.48Z"/>
    <path class="cls-3" d="M141.93,6v24.86h.48v1.34h-2.3v-1.34h.53v-15.94h-5.57v15.94h.48v1.34h-2.3v-1.34h.48V6h-.48v-1.34h9.17v1.34h-.48ZM140.63,13.59v-7.58h-5.57v7.58h5.57Z"/>
    <path class="cls-3" d="M156.38,6h-.48v5.42l.1.1-.1.14v19.2h.48v1.34h-2.3v-1.34h.53V12l-5.57-5.57v24.43h.48v1.34h-2.3v-1.34h.48V6h-.48v-1.34h1.92l5.47,5.47v-4.13h-.53v-1.34h2.3v1.34Z"/>
    <path class="cls-3" d="M168.04,13.59h.53v-7.58h-5.57v24.86h5.57v-7.58h-.53v-1.34h2.3v1.34h-.48v8.93h-8.69v-1.34h.48V6h-.48v-1.34h8.69v8.93h.48v1.34h-2.3v-1.34Z"/>
    <path class="cls-3" d="M183.83,6v24.86h.48v1.34h-2.3v-1.34h.53v-15.94h-5.57v15.94h.48v1.34h-2.3v-1.34h.48V6h-.48v-1.34h2.3v1.34h-.48v7.58h5.57v-7.58h-.53v-1.34h2.3v1.34h-.48Z"/>
    <path class="cls-3" d="M198.28,6h-.48v24.86h.48v1.34h-9.17v-1.34h.48V6h-.48v-1.34h9.17v1.34ZM196.5,30.87V6h-5.57v24.86h5.57ZM194.34,23.28h-1.3v-9.7h1.3v9.7Z"/>
    <path class="cls-3" d="M210.47,30.39h1.3v1.82h-8.69v-1.34h.48V6h-.48v-1.34h2.3v1.34h-.48v24.86h5.57v-.48Z"/>
    <path class="cls-3" d="M225.25,30.87h.48v1.34h-9.17v-1.34h.48v-8.93h1.34v8.93h5.57v-8.02l-6.91-6.91V6h-.48v-1.34h2.3v1.34h-.48v9.41l5.57,5.57V6h-.53v-1.34h2.3v1.34h-.48v24.86Z"/>
  </g>
</svg>