<?xml version="1.0" encoding="UTF-8"?>
<svg id="Layer_3" data-name="Layer 3" xmlns="http://www.w3.org/2000/svg" viewBox="0 0 229.75 36.03">
  <defs>
    <style>
      .cls-1 {
        fill: #000;
      }

      .cls-1, .cls-2, .cls-3, .cls-4, .cls-5 {
        stroke-width: 0px;
      }

      .cls-2 {
        fill: #29d330;
      }

      .cls-3 {
        fill: #d85cff;
      }

      .cls-4 {
        fill: #74ff45;
      }

      .cls-5 {
        fill: #93278f;
      }
    </style>
  </defs>
  <g>
    <path class="cls-1" d="M10.88,2.43h2.3v1.34h-.48v25.49l-6.77,6.77h-1.92v-1.34h.48V3.78h-.48v-1.34h2.3v1.34h-.48v30.48l5.57-5.57V3.78h-.53v-1.34Z"/>
    <path class="cls-1" d="M20.29,3.78h-.48v24.86h.48v1.34h-2.3v-1.34h.48V3.78h-.48v-1.34h2.3v1.34Z"/>
    <path class="cls-1" d="M25.09,2.43h9.17v1.34h-.48v10.46l-6.86,6.91v7.49h.48v1.34h-2.3v-1.34h.48V3.78h-.48v-1.34ZM32.48,13.71V3.78h-5.57v15.5l5.57-5.57Z"/>
    <path class="cls-1" d="M39.06,2.43h8.69v1.82h-1.3v-.48h-5.57v7.58h2.11v-.48h1.3v2.3h-1.3v-.48h-2.11v15.94h5.57v-.48h1.3v1.82h-8.69v-1.34h.48V3.78h-.48v-1.34Z"/>
    <path class="cls-1" d="M52.54,2.43h9.17v1.34h-.48v10.46l-2.93,2.93,2.93,2.93v8.54h.48v1.34h-2.3v-1.34h.53v-8.02l-2.54-2.5-3.02,3.02v7.49h.48v1.34h-2.3v-1.34h.48V3.78h-.48v-1.34ZM57.39,16.26l2.54-2.54V3.78h-5.57v15.5l2.06-2.11.96-.91Z"/>
    <path class="cls-1" d="M70.74,3.15l-.82,11.52h-2.59l-.77-11.52h4.18Z"/>
    <path class="cls-1" d="M84.22,12.71h-1.3V3.78h-5.57v7.49l6.86,6.86v10.51h.48v1.34h-9.17v-1.34h.48v-10.08h1.34v10.08h5.57v-9.94l-6.91-6.91V3.78h-.48v-1.34h9.17v1.34h-.48v8.93Z"/>
    <path class="cls-1" d="M105.49,3.78h-.48v24.86h.48v1.34h-2.3v-1.34h.53V4.21l-2.16,2.11v22.32h.53v1.34h-2.3v-1.34h.48V6.32l-2.11-2.11v24.43h.48v1.34h-2.3v-1.34h.48V3.78h-.48v-1.34h1.92l2.69,2.69,2.69-2.69h1.87v1.34Z"/>
    <path class="cls-1" d="M110.29,2.43h8.69v1.82h-1.3v-.48h-5.57v7.58h2.11v-.48h1.3v2.3h-1.3v-.48h-2.11v15.94h5.57v-.48h1.3v1.82h-8.69v-1.34h.48V3.78h-.48v-1.34Z"/>
    <path class="cls-1" d="M131.16,28.16h1.3v1.82h-8.69v-1.34h.48V3.78h-.48v-1.34h2.3v1.34h-.48v24.86h5.57v-.48Z"/>
    <path class="cls-1" d="M145.95,3.78v24.86h.48v1.34h-2.3v-1.34h.53v-15.94h-5.57v15.94h.48v1.34h-2.3v-1.34h.48V3.78h-.48v-1.34h9.17v1.34h-.48ZM144.65,11.36V3.78h-5.57v7.58h5.57Z"/>
    <path class="cls-1" d="M160.4,3.78h-.48v5.42l.1.1-.1.14v19.2h.48v1.34h-2.3v-1.34h.53V9.78l-5.57-5.57v24.43h.48v1.34h-2.3v-1.34h.48V3.78h-.48v-1.34h1.92l5.47,5.47V3.78h-.53v-1.34h2.3v1.34Z"/>
    <path class="cls-1" d="M172.06,11.36h.53V3.78h-5.57v24.86h5.57v-7.58h-.53v-1.34h2.3v1.34h-.48v8.93h-8.69v-1.34h.48V3.78h-.48v-1.34h8.69v8.93h.48v1.34h-2.3v-1.34Z"/>
    <path class="cls-1" d="M187.85,3.78v24.86h.48v1.34h-2.3v-1.34h.53v-15.94h-5.57v15.94h.48v1.34h-2.3v-1.34h.48V3.78h-.48v-1.34h2.3v1.34h-.48v7.58h5.57V3.78h-.53v-1.34h2.3v1.34h-.48Z"/>
    <path class="cls-1" d="M202.3,3.78h-.48v24.86h.48v1.34h-9.17v-1.34h.48V3.78h-.48v-1.34h9.17v1.34ZM200.52,28.64V3.78h-5.57v24.86h5.57ZM198.36,21.06h-1.3v-9.7h1.3v9.7Z"/>
    <path class="cls-1" d="M214.49,28.16h1.3v1.82h-8.69v-1.34h.48V3.78h-.48v-1.34h2.3v1.34h-.48v24.86h5.57v-.48Z"/>
    <path class="cls-1" d="M229.27,28.64h.48v1.34h-9.17v-1.34h.48v-8.93h1.34v8.93h5.57v-8.02l-6.91-6.91V3.78h-.48v-1.34h2.3v1.34h-.48v9.41l5.57,5.57V3.78h-.53v-1.34h2.3v1.34h-.48v24.86Z"/>
  </g>
  <g>
    <path class="cls-2" d="M8.92,1.06h2.3v1.34h-.48v25.49l-6.77,6.77h-1.92v-1.34h.48V2.4h-.48v-1.34h2.3v1.34h-.48v30.48l5.57-5.57V2.4h-.53v-1.34Z"/>
    <path class="cls-2" d="M18.33,2.4h-.48v24.86h.48v1.34h-2.3v-1.34h.48V2.4h-.48v-1.34h2.3v1.34Z"/>
    <path class="cls-2" d="M23.13,1.06h9.17v1.34h-.48v10.46l-6.86,6.91v7.49h.48v1.34h-2.3v-1.34h.48V2.4h-.48v-1.34ZM30.52,12.34V2.4h-5.57v15.5l5.57-5.57Z"/>
    <path class="cls-2" d="M37.1,1.06h8.69v1.82h-1.3v-.48h-5.57v7.58h2.11v-.48h1.3v2.3h-1.3v-.48h-2.11v15.94h5.57v-.48h1.3v1.82h-8.69v-1.34h.48V2.4h-.48v-1.34Z"/>
    <path class="cls-2" d="M50.59,1.06h9.17v1.34h-.48v10.46l-2.93,2.93,2.93,2.93v8.54h.48v1.34h-2.3v-1.34h.53v-8.02l-2.54-2.5-3.02,3.02v7.49h.48v1.34h-2.3v-1.34h.48V2.4h-.48v-1.34ZM55.43,14.88l2.54-2.54V2.4h-5.57v15.5l2.06-2.11.96-.91Z"/>
    <path class="cls-2" d="M68.78,1.77l-.82,11.52h-2.59l-.77-11.52h4.18Z"/>
    <path class="cls-2" d="M82.27,11.33h-1.3V2.4h-5.57v7.49l6.86,6.86v10.51h.48v1.34h-9.17v-1.34h.48v-10.08h1.34v10.08h5.57v-9.94l-6.91-6.91V2.4h-.48v-1.34h9.17v1.34h-.48v8.93Z"/>
    <path class="cls-5" d="M103.53,2.4h-.48v24.86h.48v1.34h-2.3v-1.34h.53V2.83l-2.16,2.11v22.32h.53v1.34h-2.3v-1.34h.48V4.95l-2.11-2.11v24.43h.48v1.34h-2.3v-1.34h.48V2.4h-.48v-1.34h1.92l2.69,2.69,2.69-2.69h1.87v1.34Z"/>
    <path class="cls-5" d="M108.33,1.06h8.69v1.82h-1.3v-.48h-5.57v7.58h2.11v-.48h1.3v2.3h-1.3v-.48h-2.11v15.94h5.57v-.48h1.3v1.82h-8.69v-1.34h.48V2.4h-.48v-1.34Z"/>
    <path class="cls-5" d="M129.21,26.79h1.3v1.82h-8.69v-1.34h.48V2.4h-.48v-1.34h2.3v1.34h-.48v24.86h5.57v-.48Z"/>
    <path class="cls-5" d="M143.99,2.4v24.86h.48v1.34h-2.3v-1.34h.53v-15.94h-5.57v15.94h.48v1.34h-2.3v-1.34h.48V2.4h-.48v-1.34h9.17v1.34h-.48ZM142.69,9.99V2.4h-5.57v7.58h5.57Z"/>
    <path class="cls-5" d="M158.44,2.4h-.48v5.42l.1.1-.1.14v19.2h.48v1.34h-2.3v-1.34h.53V8.4l-5.57-5.57v24.43h.48v1.34h-2.3v-1.34h.48V2.4h-.48v-1.34h1.92l5.47,5.47V2.4h-.53v-1.34h2.3v1.34Z"/>
    <path class="cls-5" d="M170.1,9.99h.53V2.4h-5.57v24.86h5.57v-7.58h-.53v-1.34h2.3v1.34h-.48v8.93h-8.69v-1.34h.48V2.4h-.48v-1.34h8.69v8.93h.48v1.34h-2.3v-1.34Z"/>
    <path class="cls-5" d="M185.89,2.4v24.86h.48v1.34h-2.3v-1.34h.53v-15.94h-5.57v15.94h.48v1.34h-2.3v-1.34h.48V2.4h-.48v-1.34h2.3v1.34h-.48v7.58h5.57V2.4h-.53v-1.34h2.3v1.34h-.48Z"/>
    <path class="cls-5" d="M200.34,2.4h-.48v24.86h.48v1.34h-9.17v-1.34h.48V2.4h-.48v-1.34h9.17v1.34ZM198.56,27.27V2.4h-5.57v24.86h5.57ZM196.4,19.68h-1.3v-9.7h1.3v9.7Z"/>
    <path class="cls-5" d="M212.53,26.79h1.3v1.82h-8.69v-1.34h.48V2.4h-.48v-1.34h2.3v1.34h-.48v24.86h5.57v-.48Z"/>
    <path class="cls-5" d="M227.31,27.27h.48v1.34h-9.17v-1.34h.48v-8.93h1.34v8.93h5.57v-8.02l-6.91-6.91V2.4h-.48v-1.34h2.3v1.34h-.48v9.41l5.57,5.57V2.4h-.53v-1.34h2.3v1.34h-.48v24.86Z"/>
  </g>
  <g>
    <path class="cls-4" d="M6.86,0h2.3v1.34h-.48v25.49l-6.77,6.77H0v-1.34h.48V1.34h-.48V0h2.3v1.34h-.48v30.48l5.57-5.57V1.34h-.53V0Z"/>
    <path class="cls-4" d="M16.27,1.34h-.48v24.86h.48v1.34h-2.3v-1.34h.48V1.34h-.48V0h2.3v1.34Z"/>
    <path class="cls-4" d="M21.07,0h9.17v1.34h-.48v10.46l-6.86,6.91v7.49h.48v1.34h-2.3v-1.34h.48V1.34h-.48V0ZM28.46,11.28V1.34h-5.57v15.5l5.57-5.57Z"/>
    <path class="cls-4" d="M35.04,0h8.69v1.82h-1.3v-.48h-5.57v7.58h2.11v-.48h1.3v2.3h-1.3v-.48h-2.11v15.94h5.57v-.48h1.3v1.82h-8.69v-1.34h.48V1.34h-.48V0Z"/>
    <path class="cls-4" d="M48.53,0h9.17v1.34h-.48v10.46l-2.93,2.93,2.93,2.93v8.54h.48v1.34h-2.3v-1.34h.53v-8.02l-2.54-2.5-3.02,3.02v7.49h.48v1.34h-2.3v-1.34h.48V1.34h-.48V0ZM53.37,13.82l2.54-2.54V1.34h-5.57v15.5l2.06-2.11.96-.91Z"/>
    <path class="cls-4" d="M66.72.72l-.82,11.52h-2.59l-.77-11.52h4.18Z"/>
    <path class="cls-4" d="M80.2,10.27h-1.3V1.34h-5.57v7.49l6.86,6.86v10.51h.48v1.34h-9.17v-1.34h.48v-10.08h1.34v10.08h5.57v-9.94l-6.91-6.91V1.34h-.48V0h9.17v1.34h-.48v8.93Z"/>
    <path class="cls-3" d="M101.47,1.34h-.48v24.86h.48v1.34h-2.3v-1.34h.53V1.78l-2.16,2.11v22.32h.53v1.34h-2.3v-1.34h.48V3.89l-2.11-2.11v24.43h.48v1.34h-2.3v-1.34h.48V1.34h-.48V0h1.92l2.69,2.69,2.69-2.69h1.87v1.34Z"/>
    <path class="cls-3" d="M106.27,0h8.69v1.82h-1.3v-.48h-5.57v7.58h2.11v-.48h1.3v2.3h-1.3v-.48h-2.11v15.94h5.57v-.48h1.3v1.82h-8.69v-1.34h.48V1.34h-.48V0Z"/>
    <path class="cls-3" d="M127.15,25.73h1.3v1.82h-8.69v-1.34h.48V1.34h-.48V0h2.3v1.34h-.48v24.86h5.57v-.48Z"/>
    <path class="cls-3" d="M141.93,1.34v24.86h.48v1.34h-2.3v-1.34h.53v-15.94h-5.57v15.94h.48v1.34h-2.3v-1.34h.48V1.34h-.48V0h9.17v1.34h-.48ZM140.63,8.93V1.34h-5.57v7.58h5.57Z"/>
    <path class="cls-3" d="M156.38,1.34h-.48v5.42l.1.1-.1.14v19.2h.48v1.34h-2.3v-1.34h.53V7.34l-5.57-5.57v24.43h.48v1.34h-2.3v-1.34h.48V1.34h-.48V0h1.92l5.47,5.47V1.34h-.53V0h2.3v1.34Z"/>
    <path class="cls-3" d="M168.04,8.93h.53V1.34h-5.57v24.86h5.57v-7.58h-.53v-1.34h2.3v1.34h-.48v8.93h-8.69v-1.34h.48V1.34h-.48V0h8.69v8.93h.48v1.34h-2.3v-1.34Z"/>
    <path class="cls-3" d="M183.83,1.34v24.86h.48v1.34h-2.3v-1.34h.53v-15.94h-5.57v15.94h.48v1.34h-2.3v-1.34h.48V1.34h-.48V0h2.3v1.34h-.48v7.58h5.57V1.34h-.53V0h2.3v1.34h-.48Z"/>
    <path class="cls-3" d="M198.28,1.34h-.48v24.86h.48v1.34h-9.17v-1.34h.48V1.34h-.48V0h9.17v1.34ZM196.5,26.21V1.34h-5.57v24.86h5.57ZM194.34,18.62h-1.3v-9.7h1.3v9.7Z"/>
    <path class="cls-3" d="M210.47,25.73h1.3v1.82h-8.69v-1.34h.48V1.34h-.48V0h2.3v1.34h-.48v24.86h5.57v-.48Z"/>
    <path class="cls-3" d="M225.25,26.21h.48v1.34h-9.17v-1.34h.48v-8.93h1.34v8.93h5.57v-8.02l-6.91-6.91V1.34h-.48V0h2.3v1.34h-.48v9.41l5.57,5.57V1.34h-.53V0h2.3v1.34h-.48v24.86Z"/>
  </g>
</svg>